<svg width="100" height="100" viewBox="0 0 100 100" fill="none" xmlns="http://www.w3.org/2000/svg">
<path d="M73.4 17.1C79.1 21.8 81.4 30.4 83.3 38.6C85.2 46.8 86.6 54.6 84.5 61.3C82.4 67.9 76.8 73.5 70.4 79.7C64.1 85.9 57 92.7 49.4 93.4C41.8 94.2 33.7 88.9 27.7 82.6C21.7 76.4 17.9 69 14.9 61.1C11.8 53.2 9.60001 44.6 11.8 37.5C14.1 30.4 20.8 24.7 27.9 20.5C35 16.3 42.5 13.6 50.7 12.7C58.9 11.7 67.8 12.4 73.4 17.1Z" fill="url(#paint0_linear_1_3)"/>
<mask id="path-2-outside-1_1_3" maskUnits="userSpaceOnUse" x="28" y="31" width="41" height="38" fill="black">
<rect fill="white" x="28" y="31" width="41" height="38"/>
<path d="M48.5016 41.6939C46.8489 41.6939 45.2332 42.181 43.859 43.0937C42.4848 44.0064 41.4137 45.3036 40.7812 46.8213C40.1487 48.339 39.9832 50.0091 40.3057 51.6203C40.6281 53.2315 41.424 54.7115 42.5927 55.8731C43.7614 57.0347 45.2504 57.8257 46.8714 58.1462C48.4924 58.4667 50.1726 58.3022 51.6996 57.6736C53.2265 57.0449 54.5316 55.9803 55.4499 54.6144C56.3681 53.2485 56.8582 51.6426 56.8582 49.9999C56.8559 47.7977 55.9747 45.6864 54.4081 44.1292C52.8414 42.572 50.7172 41.6962 48.5016 41.6939ZM48.5016 55.5372C47.3998 55.5372 46.3227 55.2124 45.4066 54.604C44.4904 53.9955 43.7763 53.1307 43.3547 52.1189C42.933 51.1071 42.8227 49.9937 43.0377 48.9196C43.2526 47.8454 43.7832 46.8588 44.5623 46.0844C45.3415 45.31 46.3341 44.7826 47.4148 44.5689C48.4955 44.3553 49.6156 44.4649 50.6336 44.884C51.6516 45.3031 52.5216 46.0129 53.1338 46.9235C53.7459 47.8341 54.0727 48.9047 54.0727 49.9999C54.0727 51.4684 53.4857 52.8769 52.441 53.9153C51.3962 54.9538 49.9792 55.5372 48.5016 55.5372ZM67.6416 46.4023C67.6028 46.2074 67.5223 46.023 67.4054 45.8618C67.2885 45.7006 67.1381 45.5662 66.9644 45.4679L61.7711 42.5262L61.7503 36.7086C61.7496 36.5082 61.7052 36.3104 61.6202 36.1287C61.5351 35.9471 61.4114 35.786 61.2576 35.6565C59.3737 34.0726 57.2044 32.8589 54.8648 32.0797C54.6806 32.0177 54.4853 31.9948 54.2916 32.0124C54.0979 32.03 53.9101 32.0877 53.7402 32.1818L48.5016 35.0924L43.2579 32.1766C43.0879 32.082 42.8998 32.0238 42.7058 32.0059C42.5118 31.988 42.3161 32.0108 42.1315 32.0728C39.7937 32.8576 37.6268 34.076 35.7457 35.6634C35.5921 35.7927 35.4685 35.9535 35.3835 36.1349C35.2984 36.3162 35.2539 36.5137 35.253 36.7138L35.2269 42.5366L30.0337 45.4783C29.8599 45.5766 29.7095 45.7109 29.5927 45.8722C29.4758 46.0334 29.3953 46.2178 29.3565 46.4127C28.8812 48.7866 28.8812 51.2304 29.3565 53.6043C29.3953 53.7992 29.4758 53.9836 29.5927 54.1448C29.7095 54.3061 29.8599 54.4404 30.0337 54.5387L35.2269 57.4804L35.2478 63.2981C35.2485 63.4984 35.2928 63.6963 35.3779 63.8779C35.463 64.0596 35.5867 64.2207 35.7405 64.3502C37.6243 65.934 39.7937 67.1478 42.1333 67.9269C42.3175 67.9889 42.5128 68.0118 42.7065 67.9943C42.9002 67.9767 43.088 67.919 43.2579 67.8248L48.5016 64.9074L53.7454 67.8231C53.9529 67.938 54.1868 67.9976 54.4243 67.9961C54.5765 67.9961 54.7276 67.9715 54.8718 67.9235C57.2093 67.1397 59.3762 65.9225 61.2576 64.3363C61.4112 64.207 61.5348 64.0462 61.6198 63.8649C61.7049 63.6835 61.7494 63.486 61.7503 63.286L61.7764 57.4631L66.9696 54.5214C67.1434 54.4231 67.2938 54.2888 67.4106 54.1275C67.5275 53.9663 67.608 53.7819 67.6468 53.587C68.1195 51.215 68.1177 48.7737 67.6416 46.4023ZM65.0302 52.4432L60.0563 55.2551C59.8384 55.3783 59.6579 55.5576 59.534 55.7742C59.433 55.9473 59.3269 56.1307 59.2189 56.3037C59.0807 56.522 59.0071 56.7744 59.0065 57.0323L58.9804 62.6128C57.6435 63.6564 56.1541 64.4908 54.5636 65.0873L49.5462 62.3083C49.3379 62.1937 49.1036 62.1341 48.8655 62.1352H48.8324C48.6218 62.1352 48.4094 62.1352 48.1987 62.1352C47.9496 62.129 47.7032 62.1888 47.4849 62.3083L42.464 65.0942C40.8702 64.5023 39.3767 63.6719 38.0351 62.6319L38.0159 57.0599C38.0151 56.8016 37.9415 56.5486 37.8035 56.3297C37.6956 56.1567 37.5894 55.9836 37.4902 55.8002C37.3671 55.5802 37.1867 55.3973 36.9679 55.2707L31.9888 52.4519C31.7311 50.8319 31.7311 49.1817 31.9888 47.5617L36.954 44.7446C37.1719 44.6214 37.3523 44.4421 37.4762 44.2255C37.5772 44.0524 37.6834 43.869 37.7913 43.696C37.9295 43.4778 38.0031 43.2253 38.0037 42.9675L38.0299 37.3869C39.3668 36.3434 40.8562 35.5089 42.4466 34.9124L47.4571 37.6914C47.6751 37.8116 47.9216 37.8713 48.1709 37.8645C48.3815 37.8645 48.5939 37.8645 48.8046 37.8645C49.0537 37.8707 49.3001 37.8109 49.5184 37.6914L54.5392 34.9055C56.1331 35.4974 57.6266 36.3278 58.9682 37.3678L58.9874 42.9398C58.9882 43.1981 59.0618 43.4511 59.1998 43.67C59.3077 43.8431 59.4139 44.0161 59.5131 44.1995C59.6362 44.4195 59.8166 44.6024 60.0354 44.729L65.0145 47.5479C65.2756 49.1691 65.2786 50.8211 65.0232 52.4432H65.0302Z"/>
</mask>
<path d="M48.5016 41.6939C46.8489 41.6939 45.2332 42.181 43.859 43.0937C42.4848 44.0064 41.4137 45.3036 40.7812 46.8213C40.1487 48.339 39.9832 50.0091 40.3057 51.6203C40.6281 53.2315 41.424 54.7115 42.5927 55.8731C43.7614 57.0347 45.2504 57.8257 46.8714 58.1462C48.4924 58.4667 50.1726 58.3022 51.6996 57.6736C53.2265 57.0449 54.5316 55.9803 55.4499 54.6144C56.3681 53.2485 56.8582 51.6426 56.8582 49.9999C56.8559 47.7977 55.9747 45.6864 54.4081 44.1292C52.8414 42.572 50.7172 41.6962 48.5016 41.6939ZM48.5016 55.5372C47.3998 55.5372 46.3227 55.2124 45.4066 54.604C44.4904 53.9955 43.7763 53.1307 43.3547 52.1189C42.933 51.1071 42.8227 49.9937 43.0377 48.9196C43.2526 47.8454 43.7832 46.8588 44.5623 46.0844C45.3415 45.31 46.3341 44.7826 47.4148 44.5689C48.4955 44.3553 49.6156 44.4649 50.6336 44.884C51.6516 45.3031 52.5216 46.0129 53.1338 46.9235C53.7459 47.8341 54.0727 48.9047 54.0727 49.9999C54.0727 51.4684 53.4857 52.8769 52.441 53.9153C51.3962 54.9538 49.9792 55.5372 48.5016 55.5372ZM67.6416 46.4023C67.6028 46.2074 67.5223 46.023 67.4054 45.8618C67.2885 45.7006 67.1381 45.5662 66.9644 45.4679L61.7711 42.5262L61.7503 36.7086C61.7496 36.5082 61.7052 36.3104 61.6202 36.1287C61.5351 35.9471 61.4114 35.786 61.2576 35.6565C59.3737 34.0726 57.2044 32.8589 54.8648 32.0797C54.6806 32.0177 54.4853 31.9948 54.2916 32.0124C54.0979 32.03 53.9101 32.0877 53.7402 32.1818L48.5016 35.0924L43.2579 32.1766C43.0879 32.082 42.8998 32.0238 42.7058 32.0059C42.5118 31.988 42.3161 32.0108 42.1315 32.0728C39.7937 32.8576 37.6268 34.076 35.7457 35.6634C35.5921 35.7927 35.4685 35.9535 35.3835 36.1349C35.2984 36.3162 35.2539 36.5137 35.253 36.7138L35.2269 42.5366L30.0337 45.4783C29.8599 45.5766 29.7095 45.7109 29.5927 45.8722C29.4758 46.0334 29.3953 46.2178 29.3565 46.4127C28.8812 48.7866 28.8812 51.2304 29.3565 53.6043C29.3953 53.7992 29.4758 53.9836 29.5927 54.1448C29.7095 54.3061 29.8599 54.4404 30.0337 54.5387L35.2269 57.4804L35.2478 63.2981C35.2485 63.4984 35.2928 63.6963 35.3779 63.8779C35.463 64.0596 35.5867 64.2207 35.7405 64.3502C37.6243 65.934 39.7937 67.1478 42.1333 67.9269C42.3175 67.9889 42.5128 68.0118 42.7065 67.9943C42.9002 67.9767 43.088 67.919 43.2579 67.8248L48.5016 64.9074L53.7454 67.8231C53.9529 67.938 54.1868 67.9976 54.4243 67.9961C54.5765 67.9961 54.7276 67.9715 54.8718 67.9235C57.2093 67.1397 59.3762 65.9225 61.2576 64.3363C61.4112 64.207 61.5348 64.0462 61.6198 63.8649C61.7049 63.6835 61.7494 63.486 61.7503 63.286L61.7764 57.4631L66.9696 54.5214C67.1434 54.4231 67.2938 54.2888 67.4106 54.1275C67.5275 53.9663 67.608 53.7819 67.6468 53.587C68.1195 51.215 68.1177 48.7737 67.6416 46.4023ZM65.0302 52.4432L60.0563 55.2551C59.8384 55.3783 59.6579 55.5576 59.534 55.7742C59.433 55.9473 59.3269 56.1307 59.2189 56.3037C59.0807 56.522 59.0071 56.7744 59.0065 57.0323L58.9804 62.6128C57.6435 63.6564 56.1541 64.4908 54.5636 65.0873L49.5462 62.3083C49.3379 62.1937 49.1036 62.1341 48.8655 62.1352H48.8324C48.6218 62.1352 48.4094 62.1352 48.1987 62.1352C47.9496 62.129 47.7032 62.1888 47.4849 62.3083L42.464 65.0942C40.8702 64.5023 39.3767 63.6719 38.0351 62.6319L38.0159 57.0599C38.0151 56.8016 37.9415 56.5486 37.8035 56.3297C37.6956 56.1567 37.5894 55.9836 37.4902 55.8002C37.3671 55.5802 37.1867 55.3973 36.9679 55.2707L31.9888 52.4519C31.7311 50.8319 31.7311 49.1817 31.9888 47.5617L36.954 44.7446C37.1719 44.6214 37.3523 44.4421 37.4762 44.2255C37.5772 44.0524 37.6834 43.869 37.7913 43.696C37.9295 43.4778 38.0031 43.2253 38.0037 42.9675L38.0299 37.3869C39.3668 36.3434 40.8562 35.5089 42.4466 34.9124L47.4571 37.6914C47.6751 37.8116 47.9216 37.8713 48.1709 37.8645C48.3815 37.8645 48.5939 37.8645 48.8046 37.8645C49.0537 37.8707 49.3001 37.8109 49.5184 37.6914L54.5392 34.9055C56.1331 35.4974 57.6266 36.3278 58.9682 37.3678L58.9874 42.9398C58.9882 43.1981 59.0618 43.4511 59.1998 43.67C59.3077 43.8431 59.4139 44.0161 59.5131 44.1995C59.6362 44.4195 59.8166 44.6024 60.0354 44.729L65.0145 47.5479C65.2756 49.1691 65.2786 50.8211 65.0232 52.4432H65.0302Z" fill="white"/>
<path d="M48.5016 41.6939C46.8489 41.6939 45.2332 42.181 43.859 43.0937C42.4848 44.0064 41.4137 45.3036 40.7812 46.8213C40.1487 48.339 39.9832 50.0091 40.3057 51.6203C40.6281 53.2315 41.424 54.7115 42.5927 55.8731C43.7614 57.0347 45.2504 57.8257 46.8714 58.1462C48.4924 58.4667 50.1726 58.3022 51.6996 57.6736C53.2265 57.0449 54.5316 55.9803 55.4499 54.6144C56.3681 53.2485 56.8582 51.6426 56.8582 49.9999C56.8559 47.7977 55.9747 45.6864 54.4081 44.1292C52.8414 42.572 50.7172 41.6962 48.5016 41.6939ZM48.5016 55.5372C47.3998 55.5372 46.3227 55.2124 45.4066 54.604C44.4904 53.9955 43.7763 53.1307 43.3547 52.1189C42.933 51.1071 42.8227 49.9937 43.0377 48.9196C43.2526 47.8454 43.7832 46.8588 44.5623 46.0844C45.3415 45.31 46.3341 44.7826 47.4148 44.5689C48.4955 44.3553 49.6156 44.4649 50.6336 44.884C51.6516 45.3031 52.5216 46.0129 53.1338 46.9235C53.7459 47.8341 54.0727 48.9047 54.0727 49.9999C54.0727 51.4684 53.4857 52.8769 52.441 53.9153C51.3962 54.9538 49.9792 55.5372 48.5016 55.5372ZM67.6416 46.4023C67.6028 46.2074 67.5223 46.023 67.4054 45.8618C67.2885 45.7006 67.1381 45.5662 66.9644 45.4679L61.7711 42.5262L61.7503 36.7086C61.7496 36.5082 61.7052 36.3104 61.6202 36.1287C61.5351 35.9471 61.4114 35.786 61.2576 35.6565C59.3737 34.0726 57.2044 32.8589 54.8648 32.0797C54.6806 32.0177 54.4853 31.9948 54.2916 32.0124C54.0979 32.03 53.9101 32.0877 53.7402 32.1818L48.5016 35.0924L43.2579 32.1766C43.0879 32.082 42.8998 32.0238 42.7058 32.0059C42.5118 31.988 42.3161 32.0108 42.1315 32.0728C39.7937 32.8576 37.6268 34.076 35.7457 35.6634C35.5921 35.7927 35.4685 35.9535 35.3835 36.1349C35.2984 36.3162 35.2539 36.5137 35.253 36.7138L35.2269 42.5366L30.0337 45.4783C29.8599 45.5766 29.7095 45.7109 29.5927 45.8722C29.4758 46.0334 29.3953 46.2178 29.3565 46.4127C28.8812 48.7866 28.8812 51.2304 29.3565 53.6043C29.3953 53.7992 29.4758 53.9836 29.5927 54.1448C29.7095 54.3061 29.8599 54.4404 30.0337 54.5387L35.2269 57.4804L35.2478 63.2981C35.2485 63.4984 35.2928 63.6963 35.3779 63.8779C35.463 64.0596 35.5867 64.2207 35.7405 64.3502C37.6243 65.934 39.7937 67.1478 42.1333 67.9269C42.3175 67.9889 42.5128 68.0118 42.7065 67.9943C42.9002 67.9767 43.088 67.919 43.2579 67.8248L48.5016 64.9074L53.7454 67.8231C53.9529 67.938 54.1868 67.9976 54.4243 67.9961C54.5765 67.9961 54.7276 67.9715 54.8718 67.9235C57.2093 67.1397 59.3762 65.9225 61.2576 64.3363C61.4112 64.207 61.5348 64.0462 61.6198 63.8649C61.7049 63.6835 61.7494 63.486 61.7503 63.286L61.7764 57.4631L66.9696 54.5214C67.1434 54.4231 67.2938 54.2888 67.4106 54.1275C67.5275 53.9663 67.608 53.7819 67.6468 53.587C68.1195 51.215 68.1177 48.7737 67.6416 46.4023ZM65.0302 52.4432L60.0563 55.2551C59.8384 55.3783 59.6579 55.5576 59.534 55.7742C59.433 55.9473 59.3269 56.1307 59.2189 56.3037C59.0807 56.522 59.0071 56.7744 59.0065 57.0323L58.9804 62.6128C57.6435 63.6564 56.1541 64.4908 54.5636 65.0873L49.5462 62.3083C49.3379 62.1937 49.1036 62.1341 48.8655 62.1352H48.8324C48.6218 62.1352 48.4094 62.1352 48.1987 62.1352C47.9496 62.129 47.7032 62.1888 47.4849 62.3083L42.464 65.0942C40.8702 64.5023 39.3767 63.6719 38.0351 62.6319L38.0159 57.0599C38.0151 56.8016 37.9415 56.5486 37.8035 56.3297C37.6956 56.1567 37.5894 55.9836 37.4902 55.8002C37.3671 55.5802 37.1867 55.3973 36.9679 55.2707L31.9888 52.4519C31.7311 50.8319 31.7311 49.1817 31.9888 47.5617L36.954 44.7446C37.1719 44.6214 37.3523 44.4421 37.4762 44.2255C37.5772 44.0524 37.6834 43.869 37.7913 43.696C37.9295 43.4778 38.0031 43.2253 38.0037 42.9675L38.0299 37.3869C39.3668 36.3434 40.8562 35.5089 42.4466 34.9124L47.4571 37.6914C47.6751 37.8116 47.9216 37.8713 48.1709 37.8645C48.3815 37.8645 48.5939 37.8645 48.8046 37.8645C49.0537 37.8707 49.3001 37.8109 49.5184 37.6914L54.5392 34.9055C56.1331 35.4974 57.6266 36.3278 58.9682 37.3678L58.9874 42.9398C58.9882 43.1981 59.0618 43.4511 59.1998 43.67C59.3077 43.8431 59.4139 44.0161 59.5131 44.1995C59.6362 44.4195 59.8166 44.6024 60.0354 44.729L65.0145 47.5479C65.2756 49.1691 65.2786 50.8211 65.0232 52.4432H65.0302Z" stroke="white" stroke-width="1.2" mask="url(#path-2-outside-1_1_3)"/>
<defs>
<linearGradient id="paint0_linear_1_3" x1="10.91" y1="93.4802" x2="91.8002" y2="19.1051" gradientUnits="userSpaceOnUse">
<stop stop-color="#0085FF"/>
<stop offset="1" stop-color="#00B2FF"/>
</linearGradient>
</defs>
</svg>
